<svg width="36" height="36" viewBox="0 0 36 36" fill="none" xmlns="http://www.w3.org/2000/svg">
<path d="M19.8477 21.6675C19.8477 22.705 19.0054 23.5462 17.9664 23.5462C16.9273 23.5462 16.085 22.705 16.085 21.6675C16.085 20.6299 16.9273 19.7888 17.9664 19.7888C19.0054 19.7888 19.8477 20.6299 19.8477 21.6675Z" fill="#5221e6"/>
<path fill-rule="evenodd" clip-rule="evenodd" d="M23.0616 21.6899C23.9615 22.2087 24.2698 23.3577 23.7502 24.2563L23.1231 25.3409C22.6036 26.2395 21.453 26.5474 20.5532 26.0286L20.5141 26.0061V26.0511C20.5141 27.0887 19.6718 27.9298 18.6328 27.9298H17.3786C16.3395 27.9298 15.4972 27.0887 15.4972 26.0511V26.0061L15.4582 26.0286C14.5584 26.5474 13.4078 26.2395 12.8883 25.341L12.2612 24.2563C11.7416 23.3577 12.0499 22.2087 12.9498 21.6899L12.9888 21.6674L12.9498 21.6449C12.05 21.1261 11.7417 19.9772 12.2612 19.0786L12.8883 17.9939C13.4078 17.0953 14.5584 16.7875 15.4583 17.3063L15.4972 17.3287V17.2838C15.4972 16.2463 16.3395 15.4051 17.3786 15.4051H18.6328C19.6718 15.4051 20.5141 16.2463 20.5141 17.2838V17.3288L20.5531 17.3063C21.453 16.7875 22.6036 17.0954 23.1231 17.994L23.7502 19.0786C24.2697 19.9772 23.9614 21.1262 23.0616 21.645L23.0227 21.6674L23.0616 21.6899ZM17.9664 24.7986C19.6981 24.7986 21.1019 23.3968 21.1019 21.6675C21.1019 19.9382 19.6981 18.5363 17.9664 18.5363C16.2346 18.5363 14.8308 19.9382 14.8308 21.6675C14.8308 23.3968 16.2346 24.7986 17.9664 24.7986Z" fill="#5221e6"/>
<path fill-rule="evenodd" clip-rule="evenodd" d="M1.5 7.5C1.5 5.01472 3.51472 3 6 3H30C32.4853 3 34.5 5.01472 34.5 7.5V28.5C34.5 30.9853 32.4853 33 30 33H6C3.51472 33 1.5 30.9853 1.5 28.5V7.5ZM4.5 13.506V28.5C4.5 29.3284 5.17157 30 6 30H30C30.8284 30 31.5 29.3284 31.5 28.5V13.506H4.5ZM7.50879 9.84902C8.33722 9.84902 9.00879 9.17745 9.00879 8.34902C9.00879 7.52059 8.33722 6.84902 7.50879 6.84902C6.68036 6.84902 6.00879 7.52059 6.00879 8.34902C6.00879 9.17745 6.68036 9.84902 7.50879 9.84902ZM12.0088 9.84902C12.8372 9.84902 13.5088 9.17745 13.5088 8.34902C13.5088 7.52059 12.8372 6.84902 12.0088 6.84902C11.1804 6.84902 10.5088 7.52059 10.5088 8.34902C10.5088 9.17745 11.1804 9.84902 12.0088 9.84902ZM18.0088 8.34902C18.0088 9.17745 17.3372 9.84902 16.5088 9.84902C15.6804 9.84902 15.0088 9.17745 15.0088 8.34902C15.0088 7.52059 15.6804 6.84902 16.5088 6.84902C17.3372 6.84902 18.0088 7.52059 18.0088 8.34902Z" fill="#5221e6"/>
</svg>
