<svg width="36" height="36" viewBox="0 0 36 36" fill="none" xmlns="http://www.w3.org/2000/svg">
<path d="M3 10.5598V16.5911C3 17.1938 3.26734 17.7706 3.75742 18.1214C4.75307 18.8341 5.85271 19.4442 6.96645 19.8434C9.27812 20.672 14.1076 21.5153 17.9972 21.5153C21.8868 21.5153 26.3569 20.7314 28.6686 19.9027C29.9129 19.4567 31.0617 18.975 32.1815 18.2575C32.7076 17.9205 32.9941 17.3227 32.9941 16.6979V10.3648C30.5772 12.4643 24.435 14.0476 17.9972 14.0476C11.8121 14.0476 5.69947 12.5531 3 10.5598Z" fill="#5221e6"/>
<path d="M31.938 7.94199C32.376 7.67536 32.5011 7.09879 32.1411 6.73366C30.0821 4.64577 24.527 3.1499 17.9973 3.1499C11.5456 3.1499 6.04532 4.61027 3.92881 6.65915C3.55947 7.01669 3.66493 7.59758 4.09062 7.88573C4.99587 8.49847 5.97558 9.02057 6.96645 9.37576C9.27812 10.2044 14.1076 11.0476 17.9972 11.0476C21.8868 11.0476 26.3569 10.2637 28.6686 9.43507C29.8229 9.02128 30.895 8.57688 31.938 7.94199Z" fill="#5221e6"/>
<path d="M32.9941 20.8325C30.5772 22.932 24.435 24.5153 17.9972 24.5153C11.8121 24.5153 5.69947 23.0208 3 21.0275V27.7857C3.02506 30.7471 9.73003 33.145 17.9973 33.145C26.2801 33.145 32.9947 30.7381 32.9947 27.7691C32.9947 27.7541 32.9945 27.7391 32.9941 27.7242V20.8325Z" fill="#5221e6"/>
</svg>
