<svg width="36" height="36" viewBox="0 0 36 36" fill="none" xmlns="http://www.w3.org/2000/svg">
<path fill-rule="evenodd" clip-rule="evenodd" d="M5.40723 3C2.92195 3 0.907227 5.01472 0.907227 7.5V28.5C0.907227 30.9853 2.92194 33 5.40723 33H21.0108C21.352 33 21.4544 32.4494 21.1462 32.3029C19.9829 31.75 18.5591 31.0324 17.6975 30.1835C17.5804 30.0681 17.4241 30 17.2597 30H5.40723C4.5788 30 3.90723 29.3284 3.90723 28.5V13.506H16.0442C16.4105 13.506 16.7617 13.3688 17.0477 13.1397C19.011 11.5669 21.5027 10.6262 24.2141 10.6262C27.0273 10.6262 29.7803 11.8253 31.7758 13.506C32.0841 13.7657 33.9072 14.4951 33.9072 12.9667V7.5C33.9072 5.01472 31.8925 3 29.4072 3H5.40723ZM8.41602 8.34902C8.41602 9.17745 7.74444 9.84902 6.91602 9.84902C6.08759 9.84902 5.41602 9.17745 5.41602 8.34902C5.41602 7.52059 6.08759 6.84902 6.91602 6.84902C7.74444 6.84902 8.41602 7.52059 8.41602 8.34902ZM12.916 8.34902C12.916 9.17745 12.2444 9.84902 11.416 9.84902C10.5876 9.84902 9.91601 9.17745 9.91601 8.34902C9.91601 7.52059 10.5876 6.84902 11.416 6.84902C12.2444 6.84902 12.916 7.52059 12.916 8.34902ZM15.916 9.84902C16.7444 9.84902 17.416 9.17745 17.416 8.34902C17.416 7.52059 16.7444 6.84902 15.916 6.84902C15.0876 6.84902 14.416 7.52059 14.416 8.34902C14.416 9.17745 15.0876 9.84902 15.916 9.84902Z" fill="#5221e6"/>
<path fill-rule="evenodd" clip-rule="evenodd" d="M24.9429 16.0894C21.7085 16.0894 19.0865 18.7114 19.0865 21.9458C19.0865 25.1802 21.7085 27.8022 24.9429 27.8022C26.5613 27.8022 28.0242 27.1476 29.0857 26.0852C30.1461 25.024 30.7993 23.5626 30.7993 21.9458C30.7993 18.7114 28.1773 16.0894 24.9429 16.0894ZM16.2042 21.9458C16.2042 17.1195 20.1166 13.2071 24.9429 13.2071C29.7692 13.2071 33.6816 17.1195 33.6816 21.9458C33.6816 23.837 33.0797 25.5893 32.0587 27.0193L35.5791 30.5397C36.1419 31.1025 36.1419 32.015 35.5791 32.5778C35.0163 33.1406 34.1038 33.1406 33.541 32.5778L30.0212 29.0581C28.5903 30.0812 26.8362 30.6845 24.9429 30.6845C20.1166 30.6845 16.2042 26.7721 16.2042 21.9458Z" fill="#5221e6"/>
</svg>
