<svg width="36" height="34" viewBox="0 0 36 34" fill="none" xmlns="http://www.w3.org/2000/svg">
<path d="M12.75 1.5C12.75 0.671573 13.4216 0 14.25 0H21.75C22.5784 0 23.25 0.671573 23.25 1.5V9C23.25 9.82843 22.5784 10.5 21.75 10.5H14.25C13.4216 10.5 12.75 9.82843 12.75 9V1.5Z" fill="#5221e6"/>
<path d="M19.4561 13.4667C19.4561 12.6382 18.7845 11.9667 17.9561 11.9667C17.1276 11.9667 16.4561 12.6382 16.4561 13.4667V15H5.25C4.42157 15 3.75 15.6716 3.75 16.5L3.75019 16.5241L3.75 16.5482V19.5539C3.75 20.3824 4.42157 21.0539 5.25 21.0539C6.07843 21.0539 6.75 20.3824 6.75 19.5539V18H16.4561V19.5761C16.4561 20.4045 17.1276 21.0761 17.9561 21.0761C18.7845 21.0761 19.4561 20.4045 19.4561 19.5761V18H29.25V19.554C29.25 20.3824 29.9216 21.054 30.75 21.054C31.5784 21.054 32.25 20.3824 32.25 19.554V16.5729L32.2496 16.5364L32.25 16.5C32.25 15.6716 31.5784 15 30.75 15H19.4561V13.4667Z" fill="#5221e6"/>
<path d="M14.25 22.5135C13.4216 22.5135 12.75 23.1851 12.75 24.0135V31.5135C12.75 32.342 13.4216 33.0135 14.25 33.0135H21.75C22.5784 33.0135 23.25 32.342 23.25 31.5135V24.0135C23.25 23.1851 22.5784 22.5135 21.75 22.5135H14.25Z" fill="#5221e6"/>
<path d="M25.5 24.0135C25.5 23.1851 26.1716 22.5135 27 22.5135H34.5C35.3284 22.5135 36 23.1851 36 24.0135V31.5135C36 32.342 35.3284 33.0135 34.5 33.0135H27C26.1716 33.0135 25.5 32.342 25.5 31.5135V24.0135Z" fill="#5221e6"/>
<path d="M1.5 22.5135C0.671573 22.5135 0 23.1851 0 24.0135V31.5135C0 32.342 0.671573 33.0135 1.5 33.0135H9C9.82843 33.0135 10.5 32.342 10.5 31.5135V24.0135C10.5 23.1851 9.82843 22.5135 9 22.5135H1.5Z" fill="#5221e6"/>
</svg>
