<svg width="177" height="175" viewBox="0 0 177 175" fill="none" xmlns="http://www.w3.org/2000/svg">
<path d="M88.5148 0.046875C39.7061 0.046875 0.133057 39.62 0.133057 88.4286C0.133057 129.843 28.6511 164.496 67.0971 174.085C66.6846 172.892 66.4194 171.508 66.4194 169.792V154.685C62.8325 154.685 56.8228 154.685 55.3129 154.685C49.2658 154.685 43.8896 152.086 41.2822 147.254C38.3876 141.885 37.8867 133.673 30.713 128.65C28.5846 126.978 30.2048 125.07 32.6577 125.328C37.1871 126.61 40.9435 129.718 44.4784 134.328C47.9992 138.946 49.6564 139.992 56.2335 139.992C59.4225 139.992 64.1952 139.808 68.6877 139.101C71.1037 132.966 75.2799 127.317 80.3835 124.65C50.9526 121.623 36.9073 106.981 36.9073 87.1028C36.9073 78.5444 40.5529 70.2664 46.7472 63.2914C44.7145 56.3684 42.1586 42.2493 47.528 36.8726C60.7702 36.8726 68.7761 45.4606 70.6985 47.7804C77.2975 45.5194 84.5451 44.2377 92.1604 44.2377C99.7908 44.2377 107.068 45.5194 113.682 47.795C115.582 45.4897 123.595 36.8726 136.867 36.8726C142.258 42.2565 139.673 56.4344 137.618 63.3429C143.776 70.3029 147.399 78.5595 147.399 87.1028C147.399 106.967 133.376 121.601 103.989 124.643C112.076 128.863 117.975 140.721 117.975 149.655V169.792C117.975 170.557 117.806 171.11 117.717 171.765C152.157 159.694 176.897 126.993 176.897 88.4286C176.897 39.62 137.323 0.046875 88.5148 0.046875Z" fill="black"/>
</svg>
