<?xml version="1.0" standalone="no"?>
<!DOCTYPE svg PUBLIC "-//W3C//DTD SVG 20010904//EN"
 "http://www.w3.org/TR/2001/REC-SVG-20010904/DTD/svg10.dtd">
<svg version="1.0" xmlns="http://www.w3.org/2000/svg"
 width="170.000000pt" height="170.000000pt" viewBox="0 0 170.000000 170.000000"
 preserveAspectRatio="xMidYMid meet">

<g transform="translate(0.000000,170.000000) scale(0.100000,-0.100000)"
fill="#000000" stroke="none">
<path d="M81 948 c-7 -79 -15 -164 -18 -190 l-6 -48 41 0 c37 0 41 3 47 30 5
21 13 30 26 30 14 0 19 -7 19 -30 0 -28 2 -30 40 -30 40 0 40 0 40 38 0 20 -7
98 -15 172 -8 74 -15 143 -15 153 0 15 -10 17 -73 17 l-73 0 -13 -142z m95
-115 c-15 -15 -22 15 -17 72 l5 60 9 -63 c6 -34 7 -65 3 -69z"/>
<path d="M300 900 l0 -190 45 0 45 0 0 190 0 190 -45 0 -45 0 0 -190z"/>
<path d="M1467 1078 c-28 -22 -37 -65 -37 -171 0 -115 12 -172 40 -187 26 -14
93 -13 108 2 9 9 12 9 12 0 0 -7 11 -12 25 -12 l25 0 0 110 0 110 -55 0 c-54
0 -55 0 -55 -30 0 -16 5 -30 10 -30 6 0 10 -20 10 -45 0 -33 -4 -45 -15 -45
-12 0 -15 20 -15 120 0 100 3 120 15 120 9 0 15 -9 15 -25 0 -23 4 -25 46 -25
43 0 46 2 40 23 -3 12 -6 30 -6 40 0 35 -36 57 -93 57 -29 0 -61 -6 -70 -12z"/>
<path d="M449 1021 c-22 -17 -24 -29 -28 -111 -6 -163 13 -200 100 -200 63 0
84 11 98 51 21 60 16 69 -34 69 -44 0 -45 -1 -45 -31 0 -20 -4 -29 -12 -26 -8
2 -13 21 -13 48 l0 44 59 3 58 3 -4 66 c-3 54 -8 69 -27 84 -32 26 -120 26
-152 0z m91 -81 c0 -29 -4 -40 -15 -40 -10 0 -15 10 -15 33 0 19 3 37 7 40 15
16 23 5 23 -33z"/>
<path d="M650 1030 c0 -5 11 -39 24 -75 l24 -67 -29 -86 c-16 -47 -29 -87 -29
-89 0 -2 15 -3 34 -3 29 0 35 4 48 38 l14 37 13 -37 c12 -36 15 -38 57 -38 24
0 44 3 43 8 0 4 -13 41 -28 82 l-28 75 28 83 28 82 -34 0 c-28 0 -35 -5 -45
-32 l-13 -33 -10 33 c-9 30 -13 32 -53 32 -24 0 -44 -4 -44 -10z"/>
<path d="M889 1021 c-22 -17 -24 -29 -28 -111 -6 -163 13 -200 100 -200 63 0
84 11 98 51 21 60 16 69 -34 69 -44 0 -45 -1 -45 -31 0 -20 -4 -29 -12 -26 -8
2 -13 21 -13 48 l0 44 59 3 58 3 -4 66 c-3 54 -8 69 -27 84 -32 26 -120 26
-152 0z m91 -81 c0 -29 -4 -40 -15 -40 -10 0 -15 10 -15 33 0 19 3 37 7 40 15
16 23 5 23 -33z"/>
<path d="M1090 1029 c0 -5 11 -80 25 -165 14 -86 23 -160 19 -165 -3 -5 -14
-9 -25 -9 -12 0 -19 -7 -19 -20 0 -18 7 -20 64 -20 36 0 68 4 71 10 7 11 65
336 65 363 0 13 -9 17 -39 17 l-38 0 -7 -52 c-3 -29 -6 -68 -6 -85 0 -18 -4
-33 -10 -33 -5 0 -10 21 -10 48 0 26 -3 64 -6 85 -6 35 -8 37 -45 37 -22 0
-39 -5 -39 -11z"/>
<path d="M1320 740 c0 -28 2 -30 40 -30 38 0 40 2 40 30 0 28 -2 30 -40 30
-38 0 -40 -2 -40 -30z"/>
</g>
</svg>
