<?xml version="1.0" standalone="no"?>
<!DOCTYPE svg PUBLIC "-//W3C//DTD SVG 20010904//EN"
 "http://www.w3.org/TR/2001/REC-SVG-20010904/DTD/svg10.dtd">
<svg version="1.0" xmlns="http://www.w3.org/2000/svg"
 width="170.000000pt" height="170.000000pt" viewBox="0 0 170.000000 170.000000"
 preserveAspectRatio="xMidYMid meet">

<g transform="translate(0.000000,170.000000) scale(0.100000,-0.100000)"
fill="#000000" stroke="none">
<path d="M0 850 l0 -850 850 0 850 0 0 850 0 850 -850 0 -850 0 0 -850z m244
208 c3 -24 10 -97 16 -163 6 -66 13 -137 16 -157 l6 -38 -46 0 c-46 0 -46 0
-46 35 0 28 -4 35 -19 35 -15 0 -21 -8 -23 -32 -3 -31 -6 -33 -45 -36 -43 -3
-43 -3 -43 30 0 41 29 338 35 356 3 8 27 12 74 12 l69 0 6 -42z m146 -158 l0
-200 -45 0 -45 0 0 200 0 200 45 0 45 0 0 -200z m1213 183 c14 -8 37 -69 37
-98 0 -23 -4 -25 -45 -25 -44 0 -45 1 -45 31 0 20 -4 29 -12 27 -16 -6 -19
-228 -3 -228 6 0 11 18 13 40 2 23 -1 40 -7 40 -6 0 -11 16 -11 35 l0 35 55 0
55 0 0 -120 0 -120 -24 0 c-13 0 -26 5 -28 11 -3 9 -10 9 -27 0 -30 -17 -83
-6 -107 20 -16 18 -19 41 -22 153 -4 150 4 181 50 202 31 13 97 12 121 -3z
m-996 -68 c19 -21 23 -38 23 -91 l0 -64 -61 0 -60 0 3 -40 c4 -49 22 -58 26
-12 3 31 5 32 48 32 l44 0 0 -39 c0 -28 -7 -49 -24 -67 -20 -24 -31 -28 -79
-28 -46 -1 -61 3 -79 22 -21 20 -23 34 -26 136 -2 74 0 122 8 136 29 54 136
63 177 15z m138 3 l14 -33 11 33 c10 28 17 32 46 32 19 0 34 -3 34 -7 0 -4
-12 -44 -27 -89 l-26 -82 26 -73 c15 -41 27 -80 27 -86 0 -9 -16 -13 -45 -13
-43 0 -44 1 -57 41 l-12 42 -14 -42 c-12 -37 -17 -41 -48 -41 -42 0 -42 4 -5
105 l29 80 -29 78 c-16 43 -29 80 -29 83 0 2 20 4 45 4 42 0 47 -3 60 -32z
m302 -3 c19 -21 23 -38 23 -91 l0 -64 -61 0 -60 0 3 -40 c4 -49 22 -58 26 -12
3 31 5 32 48 32 l44 0 0 -39 c0 -28 -7 -49 -24 -67 -20 -24 -31 -28 -79 -28
-46 -1 -61 3 -79 22 -21 20 -23 34 -26 136 -2 74 0 122 8 136 29 54 136 63
177 15z m127 4 c3 -17 6 -51 6 -75 0 -24 5 -44 10 -44 6 0 10 13 10 29 0 15 3
49 6 75 l7 46 44 0 c42 0 45 -2 40 -22 -3 -13 -18 -95 -32 -183 -15 -88 -34
-170 -41 -182 -12 -20 -23 -23 -74 -23 -60 0 -60 0 -60 30 0 25 4 30 25 30 21
0 25 4 20 23 -9 38 -45 285 -45 306 0 18 6 21 39 21 35 0 39 -3 45 -31z m234
-281 c-3 -32 -5 -33 -48 -33 -43 0 -45 1 -48 33 l-3 32 51 0 51 0 -3 -32z"/>
<path d="M160 902 c0 -34 4 -62 9 -62 9 0 3 109 -5 119 -2 2 -4 -23 -4 -57z"/>
<path d="M516 973 c-13 -13 -6 -63 9 -63 10 0 15 10 15 29 0 30 -12 46 -24 34z"/>
<path d="M956 973 c-13 -13 -6 -63 9 -63 10 0 15 10 15 29 0 30 -12 46 -24 34z"/>
</g>
</svg>
